<mxfile host="app.diagrams.net" modified="2023-11-06T14:55:30.475Z" agent="Mozilla/5.0 (Windows NT 10.0; Win64; x64) AppleWebKit/537.36 (KHTML, like Gecko) Chrome/119.0.0.0 Safari/537.36 Edg/119.0.0.0" etag="LyOBEPx38LfwCXTbaZjK" version="22.0.8" type="device">
  <diagram name="Page-1" id="-gcQ2U3stcDfV4JwSaec">
    <mxGraphModel dx="1002" dy="1665" grid="1" gridSize="10" guides="1" tooltips="1" connect="1" arrows="1" fold="1" page="1" pageScale="1" pageWidth="850" pageHeight="1100" math="0" shadow="0">
      <root>
        <mxCell id="0" />
        <mxCell id="1" parent="0" />
        <mxCell id="Z3ICAiZeWNDv9XGFQCF1-3" value="" style="edgeStyle=orthogonalEdgeStyle;rounded=0;orthogonalLoop=1;jettySize=auto;html=1;" edge="1" parent="1" source="Z3ICAiZeWNDv9XGFQCF1-1" target="Z3ICAiZeWNDv9XGFQCF1-2">
          <mxGeometry relative="1" as="geometry" />
        </mxCell>
        <mxCell id="Z3ICAiZeWNDv9XGFQCF1-1" value="start" style="ellipse;whiteSpace=wrap;html=1;" vertex="1" parent="1">
          <mxGeometry x="350" y="-50" width="120" height="80" as="geometry" />
        </mxCell>
        <mxCell id="Z3ICAiZeWNDv9XGFQCF1-5" value="" style="edgeStyle=orthogonalEdgeStyle;rounded=0;orthogonalLoop=1;jettySize=auto;html=1;" edge="1" parent="1" source="Z3ICAiZeWNDv9XGFQCF1-2" target="Z3ICAiZeWNDv9XGFQCF1-4">
          <mxGeometry relative="1" as="geometry" />
        </mxCell>
        <mxCell id="Z3ICAiZeWNDv9XGFQCF1-7" value="" style="edgeStyle=orthogonalEdgeStyle;rounded=0;orthogonalLoop=1;jettySize=auto;html=1;" edge="1" parent="1" source="Z3ICAiZeWNDv9XGFQCF1-2" target="Z3ICAiZeWNDv9XGFQCF1-6">
          <mxGeometry relative="1" as="geometry">
            <Array as="points">
              <mxPoint x="380" y="190" />
              <mxPoint x="300" y="190" />
            </Array>
          </mxGeometry>
        </mxCell>
        <mxCell id="Z3ICAiZeWNDv9XGFQCF1-9" value="" style="edgeStyle=orthogonalEdgeStyle;rounded=0;orthogonalLoop=1;jettySize=auto;html=1;" edge="1" parent="1" source="Z3ICAiZeWNDv9XGFQCF1-2" target="Z3ICAiZeWNDv9XGFQCF1-8">
          <mxGeometry relative="1" as="geometry" />
        </mxCell>
        <mxCell id="Z3ICAiZeWNDv9XGFQCF1-11" value="" style="edgeStyle=orthogonalEdgeStyle;rounded=0;orthogonalLoop=1;jettySize=auto;html=1;" edge="1" parent="1" source="Z3ICAiZeWNDv9XGFQCF1-2" target="Z3ICAiZeWNDv9XGFQCF1-10">
          <mxGeometry relative="1" as="geometry" />
        </mxCell>
        <mxCell id="Z3ICAiZeWNDv9XGFQCF1-2" value="nháº­p a,b" style="shape=parallelogram;perimeter=parallelogramPerimeter;whiteSpace=wrap;html=1;fixedSize=1;" vertex="1" parent="1">
          <mxGeometry x="350" y="80" width="120" height="60" as="geometry" />
        </mxCell>
        <mxCell id="Z3ICAiZeWNDv9XGFQCF1-13" value="" style="edgeStyle=orthogonalEdgeStyle;rounded=0;orthogonalLoop=1;jettySize=auto;html=1;" edge="1" parent="1" source="Z3ICAiZeWNDv9XGFQCF1-4" target="Z3ICAiZeWNDv9XGFQCF1-12">
          <mxGeometry relative="1" as="geometry" />
        </mxCell>
        <mxCell id="Z3ICAiZeWNDv9XGFQCF1-4" value="+" style="shape=parallelogram;perimeter=parallelogramPerimeter;whiteSpace=wrap;html=1;fixedSize=1;" vertex="1" parent="1">
          <mxGeometry x="40" y="240" width="120" height="60" as="geometry" />
        </mxCell>
        <mxCell id="Z3ICAiZeWNDv9XGFQCF1-15" value="" style="edgeStyle=orthogonalEdgeStyle;rounded=0;orthogonalLoop=1;jettySize=auto;html=1;" edge="1" parent="1" source="Z3ICAiZeWNDv9XGFQCF1-6" target="Z3ICAiZeWNDv9XGFQCF1-14">
          <mxGeometry relative="1" as="geometry" />
        </mxCell>
        <mxCell id="Z3ICAiZeWNDv9XGFQCF1-6" value="-" style="shape=parallelogram;perimeter=parallelogramPerimeter;whiteSpace=wrap;html=1;fixedSize=1;" vertex="1" parent="1">
          <mxGeometry x="240" y="240" width="120" height="60" as="geometry" />
        </mxCell>
        <mxCell id="Z3ICAiZeWNDv9XGFQCF1-17" value="" style="edgeStyle=orthogonalEdgeStyle;rounded=0;orthogonalLoop=1;jettySize=auto;html=1;" edge="1" parent="1" source="Z3ICAiZeWNDv9XGFQCF1-8" target="Z3ICAiZeWNDv9XGFQCF1-16">
          <mxGeometry relative="1" as="geometry" />
        </mxCell>
        <mxCell id="Z3ICAiZeWNDv9XGFQCF1-8" value="*" style="shape=parallelogram;perimeter=parallelogramPerimeter;whiteSpace=wrap;html=1;fixedSize=1;" vertex="1" parent="1">
          <mxGeometry x="430" y="240" width="120" height="60" as="geometry" />
        </mxCell>
        <mxCell id="Z3ICAiZeWNDv9XGFQCF1-19" value="" style="edgeStyle=orthogonalEdgeStyle;rounded=0;orthogonalLoop=1;jettySize=auto;html=1;" edge="1" parent="1" source="Z3ICAiZeWNDv9XGFQCF1-10" target="Z3ICAiZeWNDv9XGFQCF1-18">
          <mxGeometry relative="1" as="geometry" />
        </mxCell>
        <mxCell id="Z3ICAiZeWNDv9XGFQCF1-10" value="/" style="shape=parallelogram;perimeter=parallelogramPerimeter;whiteSpace=wrap;html=1;fixedSize=1;" vertex="1" parent="1">
          <mxGeometry x="650" y="240" width="120" height="60" as="geometry" />
        </mxCell>
        <mxCell id="Z3ICAiZeWNDv9XGFQCF1-24" style="edgeStyle=orthogonalEdgeStyle;rounded=0;orthogonalLoop=1;jettySize=auto;html=1;exitX=0.5;exitY=1;exitDx=0;exitDy=0;entryX=0;entryY=0.5;entryDx=0;entryDy=0;" edge="1" parent="1" source="Z3ICAiZeWNDv9XGFQCF1-12" target="Z3ICAiZeWNDv9XGFQCF1-20">
          <mxGeometry relative="1" as="geometry" />
        </mxCell>
        <mxCell id="Z3ICAiZeWNDv9XGFQCF1-12" value="a + b" style="shape=parallelogram;perimeter=parallelogramPerimeter;whiteSpace=wrap;html=1;fixedSize=1;" vertex="1" parent="1">
          <mxGeometry x="40" y="380" width="120" height="60" as="geometry" />
        </mxCell>
        <mxCell id="Z3ICAiZeWNDv9XGFQCF1-21" style="edgeStyle=orthogonalEdgeStyle;rounded=0;orthogonalLoop=1;jettySize=auto;html=1;exitX=0.5;exitY=1;exitDx=0;exitDy=0;entryX=0;entryY=0;entryDx=0;entryDy=0;" edge="1" parent="1" source="Z3ICAiZeWNDv9XGFQCF1-14" target="Z3ICAiZeWNDv9XGFQCF1-20">
          <mxGeometry relative="1" as="geometry" />
        </mxCell>
        <mxCell id="Z3ICAiZeWNDv9XGFQCF1-14" value="a - b" style="shape=parallelogram;perimeter=parallelogramPerimeter;whiteSpace=wrap;html=1;fixedSize=1;" vertex="1" parent="1">
          <mxGeometry x="240" y="380" width="120" height="60" as="geometry" />
        </mxCell>
        <mxCell id="Z3ICAiZeWNDv9XGFQCF1-22" style="edgeStyle=orthogonalEdgeStyle;rounded=0;orthogonalLoop=1;jettySize=auto;html=1;exitX=0.5;exitY=1;exitDx=0;exitDy=0;" edge="1" parent="1" source="Z3ICAiZeWNDv9XGFQCF1-16" target="Z3ICAiZeWNDv9XGFQCF1-20">
          <mxGeometry relative="1" as="geometry" />
        </mxCell>
        <mxCell id="Z3ICAiZeWNDv9XGFQCF1-16" value="a * b" style="shape=parallelogram;perimeter=parallelogramPerimeter;whiteSpace=wrap;html=1;fixedSize=1;" vertex="1" parent="1">
          <mxGeometry x="430" y="380" width="120" height="60" as="geometry" />
        </mxCell>
        <mxCell id="Z3ICAiZeWNDv9XGFQCF1-23" style="edgeStyle=orthogonalEdgeStyle;rounded=0;orthogonalLoop=1;jettySize=auto;html=1;exitX=0.5;exitY=1;exitDx=0;exitDy=0;entryX=1;entryY=0.5;entryDx=0;entryDy=0;" edge="1" parent="1" source="Z3ICAiZeWNDv9XGFQCF1-18" target="Z3ICAiZeWNDv9XGFQCF1-20">
          <mxGeometry relative="1" as="geometry" />
        </mxCell>
        <mxCell id="Z3ICAiZeWNDv9XGFQCF1-18" value="a / b" style="shape=parallelogram;perimeter=parallelogramPerimeter;whiteSpace=wrap;html=1;fixedSize=1;" vertex="1" parent="1">
          <mxGeometry x="650" y="380" width="120" height="60" as="geometry" />
        </mxCell>
        <mxCell id="Z3ICAiZeWNDv9XGFQCF1-20" value="end" style="ellipse;whiteSpace=wrap;html=1;" vertex="1" parent="1">
          <mxGeometry x="365" y="580" width="120" height="80" as="geometry" />
        </mxCell>
      </root>
    </mxGraphModel>
  </diagram>
</mxfile>
